# xmcd
#
# Track frame offsets:
# 150
# 13950
# 27785
# 63805
# 107960
# 129477
# 149260
# 176570
# 211202
# 235995
# 247097
#
# Disc length: 4107 seconds
#
#
# Revision: 3
# Processed by: cddbd v1.5.2PL0 Copyright (c) Steve Scherf et al.
# Submitted via: FreeRIP 2.951 
#
DISCID=9b10090b
DTITLE=B.B. King - Live At The Casino,Montreux (Bootleg) - B.B. King - Live At The Casino,Montreux (Bootleg)
DYEAR=1993
DGENRE=Blues
TTITLE0=B.B. King Intro
TTITLE1=Let The Good Times Roll
TTITLE2=When It All Comes Down (I'll Still Be Around)
TTITLE3=Chains Of Love
TTITLE4=Caldonia
TTITLE5=Since I Met You Baby
TTITLE6=Playin' With My Friends
TTITLE7=Ain't Nobody Love
TTITLE8=Rock Me Baby
TTITLE9=Please Accept My Love
TTITLE10=The Thrill Is Gone
EXTD=Mario´s Musik
EXTT0=
EXTT1=
EXTT2=
EXTT3=
EXTT4=
EXTT5=
EXTT6=
EXTT7=
EXTT8=
EXTT9=
EXTT10=
PLAYORDER=
